{"title":"Paradisio - All Music Videos (VOB - 5.1)","uid":8320946,"size":1003580954,"categoryP":"audio","categoryS":"music","magnet":"?xt=urn:btih:9f475508a6125cc9be9d41f796cad4f950ea2371&amp;dn=Paradisio+-+All+Music+Videos+%28VOB+-+5.1%29&amp;tr=udp%3A%2F%2Ftracker.openbittorrent.com%3A80&amp;tr=udp%3A%2F%2Fopen.demonii.com%3A1337&amp;tr=udp%3A%2F%2Ftracker.coppersurfer.tk%3A6969&amp;tr=udp%3A%2F%2Fexodus.desync.com%3A6969","seeders":2,"leechers":0,"uploader":"parbulo","files":-1,"time":1364670333,"description":"************************************************************************\nParadisio All Music Videos Best Quality\n\n\n1-Paradisio - Bailando (Espanol Version) [DD2.0-PAL].vob\n\n2-Paradisio - Bailando [DD5.1-PAL].vob\n\n3-Paradisio - Bandolero [SVCD-RaiUno] (gianni and matteo rip).mpg\n\n4-Paradisio - Luz De La Luna [MP2-PAL].vob\n\n5-Paradisio - Paseo (Original Version) [VCD-MTV].mpg\n\n6-Paradisio - Vamos A La Discoteca [LPCM-PAL-WS].vob\n\n\n\nInfo:\n\nGeneral\n(Original Version) [VCD-MTV].mpg\nFormat                                   : MPEG-PS\nFile size                                : 29.2 MiB\nDuration                                 : 3mn 19s\nOverall bit rate                         : 1 229 Kbps\n\nVideo\nID                                       : 224 (0xE0)\nFormat                                   : MPEG Video\nFormat version                           : Version 1\nFormat settings, BVOP                    : Yes\nFormat settings, Matrix                  : Default\nFormat settings, GOP                     : M=3, N=15\nDuration                                 : 3mn 19s\nBit rate                                 : 1 098 Kbps\nWidth                                    : 720 pixels\nHeight                                   : 576 pixels\nDisplay aspect ratio                     : 4:3\nFrame rate                               : 60.000 fps\nStandard                                 : PAL\nColor space                              : YUV\nBit depth                                : 8 bits\nScan type                                : Progressive\nCompression mode                         : Lossy\nBits/(Pixel*Frame)                       : 0.433\nTime code of first frame                 : 00:00:00:00\nTime code source                         : Group of pictures header\nStream size                              : 25.9 MiB (89%)\n\nAudio\nID                                       : 192 (0xC0)\nFormat                                   : MPEG Audio\nFormat version                           : Version 1\nFormat profile                           : Layer 2\nMode                                     : Joint stereo\nDuration                                 : 3mn 19s\nBit rate mode                            : Constant\nBit rate                                 : 192 Kbps\nChannel(s)                               : 2 channels\nSampling rate                            : 44.1 KHz\nCompression mode                         : Lossy\nDelay relative to video                  : -80ms\nStream size                              : 2.66 MiB (9%)\n\n","torrent":{"xt":"urn:btih:9f475508a6125cc9be9d41f796cad4f950ea2371","amp;dn":"Paradisio+-+All+Music+Videos+%28VOB+-+5.1%29","amp;tr":["udp%3A%2F%2Ftracker.openbittorrent.com%3A80","udp%3A%2F%2Fopen.demonii.com%3A1337","udp%3A%2F%2Ftracker.coppersurfer.tk%3A6969","udp%3A%2F%2Fexodus.desync.com%3A6969"],"infoHash":"9f475508a6125cc9be9d41f796cad4f950ea2371","infoHashBuffer":{"type":"Buffer","data":[159,71,85,8,166,18,92,201,190,157,65,247,150,202,212,249,80,234,35,113]},"announce":[],"urlList":[]}}